<?xml version="1.0" encoding="UTF-8"?>
<!-- Google Calendar icon sourced from SVG Repo -->
<svg width="800px" height="800px" viewBox="0 0 256 256" version="1.1" xmlns="http://www.w3.org/2000/svg" xmlns:xlink="http://www.w3.org/1999/xlink" preserveAspectRatio="xMidYMid">
    <g>
        <polygon fill="#FFFFFF" points="195.368421 60.6315789 60.6315789 60.6315789 60.6315789 195.368421 195.368421 195.368421"></polygon>
        <polygon fill="#EA4335" points="195.368421 256 256 195.368421 225.684211 190.196005 195.368421 195.368421 189.835162 223.098002"></polygon>
        <path d="M0,195.368421 L0,235.789474 C0,246.955789 9.04421053,256 20.2105263,256 L60.6315789,256 L66.8568645,225.684211 L60.6315789,195.368421 L27.5991874,190.196005 L0,195.368421 Z" fill="#188038"></path>
        <path d="M256,60.6315789 L256,20.2105263 C256,9.04421053 246.955789,0 235.789474,0 L195.368421,0 C191.679582,15.0358547 189.835162,26.1010948 189.835162,33.1957202 C189.835162,40.2903456 191.679582,49.4356319 195.368421,60.6315789 C208.777986,64.4714866 218.883249,66.3914404 225.684211,66.3914404 C232.485172,66.3914404 242.590435,64.4714866 256,60.6315789 Z" fill="#1967D2"></path>
        <polygon fill="#FBBC04" points="256 60.6315789 195.368421 60.6315789 195.368421 195.368421 256 195.368421"></polygon>
        <polygon fill="#34A853" points="195.368421 195.368421 60.6315789 195.368421 60.6315789 256 195.368421 256"></polygon>
        <path d="M195.368421,0 L20.2105263,0 C9.04421053,0 0,9.04421053 0,20.2105263 L0,195.368421 L60.6315789,195.368421 L60.6315789,60.6315789 L195.368421,60.6315789 L195.368421,0 Z" fill="#4285F4"></path>
    </g>
</svg> 